<?xml version="1.0" encoding="utf-8"?>
<!-- Generator: Adobe Illustrator 16.0.0, SVG Export Plug-In . SVG Version: 6.00 Build 0)  -->
<!DOCTYPE svg PUBLIC "-//W3C//DTD SVG 1.1//EN" "http://www.w3.org/Graphics/SVG/1.1/DTD/svg11.dtd">
<svg version="1.1" id="Calque_1" xmlns="http://www.w3.org/2000/svg" xmlns:xlink="http://www.w3.org/1999/xlink" x="0px" y="0px"
	 width="300px" height="300px" viewBox="0 0 300 300" enable-background="new 0 0 300 300" xml:space="preserve">
<g>
	<g>
		<path fill="#010101" d="M214.841,90.812h-4.092V53.805c0-2.666-2.162-4.828-4.828-4.828H94.083c-2.668,0-4.828,2.162-4.828,4.828
			v37.008H85.16c-15.97,0-28.966,12.994-28.966,28.966v59.802c0,15.973,12.996,28.967,28.966,28.967h4.095v37.648
			c0,2.666,2.16,4.828,4.828,4.828h111.838c2.666,0,4.828-2.162,4.828-4.828v-37.648h4.092c15.97,0,28.965-12.994,28.965-28.967
			v-59.802C243.807,103.807,230.811,90.812,214.841,90.812z M98.91,58.632h102.184v32.181H98.91V58.632z M201.094,241.369H98.91
			v-59.541h102.184V241.369z M234.151,179.58c0,10.65-8.662,19.311-19.311,19.311h-4.092v-17.062h10.441
			c2.667,0,4.827-2.162,4.827-4.828s-2.16-4.828-4.827-4.828h-15.27H94.083h-13.84c-2.666,0-4.828,2.162-4.828,4.828
			s2.162,4.828,4.828,4.828h9.012v17.062H85.16c-10.647,0-19.311-8.662-19.311-19.311v-59.802c0-10.647,8.663-19.31,19.311-19.31
			h8.922H205.92h8.921c10.647,0,19.311,8.662,19.311,19.31V179.58L234.151,179.58L234.151,179.58z"/>
		<path fill="#010101" d="M205.921,119.719c-3.637,0-6.589,2.951-6.589,6.589c0,3.637,2.951,6.589,6.589,6.589
			s6.589-2.951,6.589-6.589C212.509,122.67,209.559,119.719,205.921,119.719z"/>
		<path fill="#010101" d="M110.173,198.521h79.655c2.667,0,4.828-2.162,4.828-4.828s-2.162-4.828-4.828-4.828h-79.655
			c-2.666,0-4.827,2.162-4.827,4.828S107.507,198.521,110.173,198.521z"/>
		<path fill="#010101" d="M110.173,216.426h79.655c2.667,0,4.828-2.162,4.828-4.826c0-2.666-2.162-4.828-4.828-4.828h-79.655
			c-2.666,0-4.827,2.162-4.827,4.828S107.507,216.426,110.173,216.426z"/>
	</g>
</g>
<circle fill="#FFFFFF" stroke="#000000" stroke-width="7" stroke-miterlimit="10" cx="228.667" cy="231.334" r="40.334"/>
<path d="M215.127,251.826c-2.679-3.262-4.017-7.23-4.017-11.908h6.595c0.28,3.25,0.888,5.611,1.823,7.086
	c1.638,2.643,4.596,3.963,8.875,3.963c3.32,0,5.986-0.889,7.998-2.666c2.011-1.775,3.017-4.07,3.017-6.875
	c0-3.461-1.058-5.881-3.174-7.262c-2.117-1.379-5.058-2.068-8.822-2.068c-0.421,0-0.848,0.006-1.28,0.018
	c-0.434,0.012-0.872,0.029-1.315,0.053v-5.578c0.654,0.07,1.204,0.117,1.649,0.139c0.442,0.025,0.922,0.037,1.438,0.037
	c2.361,0,4.303-0.375,5.822-1.123c2.666-1.311,3.999-3.648,3.999-7.016c0-2.502-0.889-4.432-2.666-5.789
	c-1.776-1.355-3.847-2.033-6.208-2.033c-4.21,0-7.121,1.402-8.735,4.209c-0.889,1.543-1.391,3.742-1.508,6.596h-6.244
	c0-3.742,0.749-6.922,2.245-9.543c2.571-4.676,7.097-7.014,13.575-7.014c5.122,0,9.085,1.139,11.892,3.418
	c2.806,2.281,4.209,5.584,4.209,9.91c0,3.086-0.83,5.59-2.49,7.508c-1.029,1.191-2.362,2.129-3.999,2.807
	c2.643,0.725,4.706,2.121,6.191,4.189c1.484,2.07,2.228,4.602,2.228,7.596c0,4.795-1.578,8.699-4.735,11.717
	c-3.157,3.016-7.636,4.523-13.436,4.523C222.112,256.719,217.805,255.088,215.127,251.826z"/>
</svg>
