<?xml version="1.0" encoding="utf-8"?>
<!-- Generator: Adobe Illustrator 16.0.0, SVG Export Plug-In . SVG Version: 6.00 Build 0)  -->
<!DOCTYPE svg PUBLIC "-//W3C//DTD SVG 1.1//EN" "http://www.w3.org/Graphics/SVG/1.1/DTD/svg11.dtd">
<svg version="1.1" id="Calque_1" xmlns="http://www.w3.org/2000/svg" xmlns:xlink="http://www.w3.org/1999/xlink" x="0px" y="0px"
	 width="300px" height="300px" viewBox="0 0 300 300" enable-background="new 0 0 300 300" xml:space="preserve">
<g>
	<path fill="#010101" d="M41.274,192.256l105.823,50.277c0.857,0.406,1.86,0.623,2.903,0.623c0.824,0,1.646-0.141,2.374-0.402
		c0.122-0.044,0.293-0.105,106.354-50.498c1.383-0.656,2.205-1.736,2.205-2.892v-78.75c0-0.745-0.356-1.837-2.059-2.814
		l-0.085-0.048L152.905,57.444c-1.688-0.8-4.123-0.8-5.81,0L41.274,107.724c-0.545,0.259-2.206,1.047-2.206,2.89v78.75
		C39.068,190.52,39.893,191.6,41.274,192.256z M53.167,110.614L97.88,89.37l94.09,47.31l-41.97,19.939L53.167,110.614z
		 M155.11,232.943v-70.208l95.6-45.423v70.209L155.11,232.943z M202.08,131.878l-94.093-47.311L150,64.606l96.833,46.007
		L202.08,131.878z M49.288,187.521v-70.209l95.602,45.423v70.21L49.288,187.521z"/>
</g>
<g>
	<circle fill="#FFFFFF" stroke="#000000" stroke-width="7" stroke-miterlimit="10" cx="228.667" cy="231.334" r="40.334"/>
	<g>
		<path d="M214.179,220.536v-4.951c4.664-0.455,7.916-1.215,9.758-2.279s3.217-3.582,4.125-7.551h5.094v51.158h-6.887v-36.377
			H214.179z"/>
	</g>
</g>
</svg>
