<?xml version="1.0" encoding="utf-8"?>
<!-- Generator: Adobe Illustrator 16.0.0, SVG Export Plug-In . SVG Version: 6.00 Build 0)  -->
<!DOCTYPE svg PUBLIC "-//W3C//DTD SVG 1.1//EN" "http://www.w3.org/Graphics/SVG/1.1/DTD/svg11.dtd">
<svg version="1.1" id="Calque_1" xmlns="http://www.w3.org/2000/svg" xmlns:xlink="http://www.w3.org/1999/xlink" x="0px" y="0px"
	 width="300px" height="300px" viewBox="0 0 300 300" enable-background="new 0 0 300 300" xml:space="preserve">
<g>
	<path fill="#010101" d="M-266.06,174.922l105.823,50.277c0.857,0.406,1.86,0.623,2.903,0.623c0.824,0,1.646-0.141,2.374-0.402
		c0.122-0.043,0.293-0.105,106.354-50.498c1.383-0.656,2.205-1.736,2.205-2.891V93.28c0-0.745-0.356-1.837-2.059-2.814l-0.085-0.048
		l-105.883-50.307c-1.688-0.8-4.123-0.8-5.81,0L-266.06,90.39c-0.545,0.259-2.206,1.047-2.206,2.89v78.751
		C-268.266,173.186-267.441,174.266-266.06,174.922z M-254.167,93.28l44.714-21.244l94.09,47.31l-41.97,19.939L-254.167,93.28z
		 M-152.224,215.609v-70.208l95.6-45.423v70.209L-152.224,215.609z M-105.254,114.545l-94.093-47.311l42.012-19.961l96.833,46.007
		L-105.254,114.545z M-258.046,170.188V99.979l95.602,45.423v70.209L-258.046,170.188z"/>
</g>
<g>
	<path fill="#010101" d="M41.274,192.256l105.823,50.277c0.857,0.406,1.86,0.623,2.903,0.623c0.824,0,1.646-0.141,2.374-0.402
		c0.122-0.043,0.293-0.105,106.354-50.498c1.383-0.656,2.205-1.736,2.205-2.891v-78.752c0-0.744-0.356-1.837-2.06-2.814
		l-0.085-0.048L152.904,57.444c-1.688-0.8-4.122-0.801-5.809,0l-105.821,50.28c-0.545,0.259-2.206,1.047-2.206,2.89v78.752
		C39.068,190.52,39.893,191.6,41.274,192.256z M53.167,110.613L97.88,89.37l94.091,47.31L150,156.619L53.167,110.613z
		 M155.109,232.943v-70.209l95.601-45.423v70.21L155.109,232.943z M202.08,131.878l-94.093-47.311L150,64.606l96.833,46.007
		L202.08,131.878z M49.288,187.521v-70.209l95.602,45.422v70.211L49.288,187.521z"/>
</g>
<g>
	<circle fill="#FFFFFF" stroke="#000000" stroke-width="7" stroke-miterlimit="10" cx="-84" cy="220.668" r="40.334"/>
	<g>
		<path d="M-98.488,209.87v-4.951c4.664-0.455,7.916-1.215,9.758-2.278c1.842-1.064,3.217-3.582,4.125-7.552h5.094v51.158h-6.887
			V209.87H-98.488z"/>
	</g>
</g>
<g>
	<path fill="none" stroke="#010101" stroke-width="7" stroke-miterlimit="10" d="M-69.334,447.841c0,3.652-2.687,6.615-6,6.615H-306
		c-3.313,0-6-2.963-6-6.615v-15.438c0-3.652,2.687-6.615,6-6.615h230.666c3.313,0,6,2.963,6,6.615V447.841z"/>
	<path fill="none" stroke="#010101" stroke-width="12" stroke-miterlimit="10" d="M-244,482.157c0,1.135-0.698,2.055-1.558,2.055
		h-59.886c-0.859,0-1.557-0.92-1.557-2.055v-4.793c0-1.136,0.697-2.056,1.557-2.056h59.886c0.859,0,1.558,0.921,1.558,2.056V482.157
		z"/>
	<path fill="none" stroke="#010101" stroke-width="7" stroke-miterlimit="10" d="M-69.334,404.507c0,3.653-2.687,6.614-6,6.614H-306
		c-3.313,0-6-2.961-6-6.614V389.07c0-3.653,2.687-6.615,6-6.615h230.666c3.313,0,6,2.962,6,6.615V404.507z"/>
	<path fill="none" stroke="#010101" stroke-width="7" stroke-miterlimit="10" d="M-69.334,361.174c0,3.652-2.687,6.615-6,6.615H-306
		c-3.313,0-6-2.963-6-6.615v-15.438c0-3.652,2.687-6.615,6-6.615h230.666c3.313,0,6,2.963,6,6.615V361.174z"/>
	<path fill="none" stroke="#010101" stroke-width="7" stroke-miterlimit="10" d="M-69.334,317.84c0,3.653-2.687,6.615-6,6.615H-306
		c-3.313,0-6-2.962-6-6.615v-15.438c0-3.652,2.687-6.614,6-6.614h230.666c3.313,0,6,2.962,6,6.614V317.84z"/>
	<path d="M-126.681,489.242c1.555-3.203,4.59-6.115,9.104-8.734l6.734-3.894c3.018-1.754,5.133-3.252,6.35-4.494
		c1.916-1.945,2.875-4.17,2.875-6.678c0-2.93-0.877-5.255-2.629-6.977c-1.754-1.723-4.094-2.584-7.016-2.584
		c-4.328,0-7.32,1.644-8.98,4.926c-0.891,1.76-1.381,4.198-1.475,7.316h-6.418c0.07-4.372,0.877-7.938,2.42-10.699
		c2.736-4.863,7.564-7.296,14.488-7.296c5.752,0,9.955,1.556,12.609,4.666c2.654,3.11,3.982,6.571,3.982,10.383
		c0,4.023-1.416,7.46-4.246,10.313c-1.637,1.661-4.572,3.672-8.803,6.032l-4.807,2.666c-2.293,1.264-4.094,2.469-5.402,3.612
		c-2.338,2.035-3.811,4.292-4.42,6.771h27.432v5.964h-34.482C-129.132,496.212-128.235,492.447-126.681,489.242z"/>
</g>
<path d="M408.023,64.881c0.421,3.602,2.093,6.092,5.016,7.472c1.496,0.702,3.228,1.052,5.191,1.052c3.74,0,6.513-1.192,8.313-3.578
	c1.801-2.386,2.7-5.027,2.7-7.928c0-3.508-1.069-6.22-3.209-8.138c-2.141-1.917-4.706-2.876-7.699-2.876
	c-2.176,0-4.041,0.421-5.596,1.262c-1.557,0.843-2.882,2.013-3.981,3.509l-5.473-0.316l3.826-27.045h26.096v6.104h-21.361
	l-2.142,13.962c1.17-0.89,2.281-1.556,3.333-2c1.87-0.772,4.034-1.158,6.49-1.158c4.605,0,8.512,1.486,11.716,4.455
	c3.203,2.971,4.806,6.735,4.806,11.295c0,4.748-1.468,8.935-4.401,12.559c-2.937,3.626-7.618,5.438-14.05,5.438
	c-4.093,0-7.712-1.152-10.855-3.456c-3.146-2.302-4.905-5.84-5.279-10.61h6.56V64.881z"/>
<circle fill="#FFFFFF" stroke="#000000" stroke-width="7" stroke-miterlimit="10" cx="228.667" cy="231.334" r="40.334"/>
<g>
	<g>
		<g>
			<path fill="#010101" d="M196.175,436.812h-4.092v-37.008c0-2.666-2.162-4.828-4.828-4.828H75.417
				c-2.668,0-4.828,2.162-4.828,4.828v37.008h-4.095c-15.97,0-28.966,12.993-28.966,28.966v59.802
				c0,15.973,12.996,28.967,28.966,28.967h4.095v37.648c0,2.666,2.16,4.828,4.828,4.828h111.838c2.666,0,4.828-2.162,4.828-4.828
				v-37.648h4.092c15.97,0,28.966-12.994,28.966-28.967v-59.802C225.141,449.807,212.145,436.812,196.175,436.812z M80.244,404.632
				h102.184v32.181H80.244V404.632z M182.428,587.369H80.244v-59.541h102.184V587.369L182.428,587.369z M215.484,525.58
				c0,10.65-8.661,19.311-19.311,19.311h-4.092v-17.062h10.441c2.666,0,4.826-2.162,4.826-4.828s-2.16-4.828-4.826-4.828h-15.271
				H75.417h-13.84c-2.666,0-4.828,2.162-4.828,4.828s2.162,4.828,4.828,4.828h9.012v17.062h-4.095
				c-10.647,0-19.311-8.662-19.311-19.311v-59.802c0-10.647,8.663-19.311,19.311-19.311h8.922h111.838h8.921
				c10.647,0,19.312,8.662,19.312,19.311v59.802H215.484L215.484,525.58z"/>
			<path fill="#010101" d="M187.255,465.719c-3.637,0-6.589,2.951-6.589,6.589s2.951,6.589,6.589,6.589s6.589-2.95,6.589-6.589
				C193.843,468.67,190.893,465.719,187.255,465.719z"/>
			<path fill="#010101" d="M91.507,544.521h79.655c2.667,0,4.828-2.162,4.828-4.828s-2.162-4.828-4.828-4.828H91.507
				c-2.666,0-4.827,2.162-4.827,4.828S88.841,544.521,91.507,544.521z"/>
			<path fill="#010101" d="M91.507,562.426h79.655c2.667,0,4.828-2.162,4.828-4.826c0-2.666-2.162-4.827-4.828-4.827H91.507
				c-2.666,0-4.827,2.161-4.827,4.827S88.841,562.426,91.507,562.426z"/>
		</g>
	</g>
	<path d="M196.461,597.826c-2.679-3.262-4.018-7.23-4.018-11.908h6.596c0.279,3.25,0.888,5.611,1.822,7.086
		c1.639,2.643,4.597,3.963,8.875,3.963c3.32,0,5.986-0.889,7.998-2.666c2.012-1.774,3.018-4.07,3.018-6.875
		c0-3.461-1.059-5.881-3.174-7.262c-2.117-1.379-5.059-2.068-8.822-2.068c-0.421,0-0.848,0.006-1.279,0.019
		c-0.435,0.012-0.873,0.028-1.315,0.053v-5.578c0.653,0.07,1.204,0.117,1.649,0.139c0.441,0.025,0.922,0.037,1.438,0.037
		c2.361,0,4.303-0.375,5.822-1.123c2.666-1.311,3.998-3.647,3.998-7.016c0-2.502-0.889-4.432-2.666-5.789
		c-1.775-1.354-3.846-2.033-6.207-2.033c-4.211,0-7.121,1.402-8.735,4.209c-0.89,1.543-1.392,3.742-1.508,6.597h-6.244
		c0-3.742,0.749-6.923,2.245-9.544c2.57-4.676,7.097-7.014,13.574-7.014c5.123,0,9.086,1.139,11.893,3.418
		c2.807,2.281,4.209,5.584,4.209,9.91c0,3.086-0.83,5.59-2.49,7.508c-1.029,1.191-2.361,2.129-3.998,2.808
		c2.643,0.725,4.705,2.12,6.19,4.188c1.483,2.07,2.228,4.603,2.228,7.596c0,4.796-1.578,8.699-4.734,11.718
		c-3.157,3.016-7.637,4.522-13.436,4.522C203.445,602.719,199.139,601.088,196.461,597.826z"/>
</g>
<path d="M230.822,255.52v-12.277h-22.027v-6.174l23.012-31.92h5.332v32.586h7.4v5.508h-7.4v12.277H230.822z M230.719,237.734
	v-22.815l-16.102,22.815H230.719z"/>
<image overflow="visible" enable-background="new    " width="128" height="128" xlink:href="../../../../../Users/Marion/Downloads/bar-code.png"  transform="matrix(0.3897 -0.2063 0.2801 0.1359 74.8643 -62.5791)">
</image>
<g>
	<polygon points="128.639,101.313 130.58,100.105 159.893,114.826 157.951,116.033 	"/>
	<polygon points="132.298,99.037 135.882,96.808 165.193,111.527 161.609,113.757 	"/>
	<polygon points="137.226,95.971 139.913,94.299 169.228,109.02 166.539,110.692 	"/>
	<polygon points="142.303,92.812 143.796,91.884 173.11,106.604 171.615,107.533 	"/>
	<polygon points="146.261,90.351 148.799,88.771 178.113,103.492 175.573,105.071 	"/>
	<polygon points="150.816,87.517 153.205,86.031 182.52,100.751 180.128,102.238 	"/>
	<polygon points="155.818,84.405 157.163,83.569 186.477,98.29 185.131,99.126 	"/>
	<polygon points="159.18,82.314 162.764,80.085 192.076,94.806 188.492,97.036 	"/>
	<polygon points="164.182,79.203 166.722,77.624 196.034,92.344 193.496,93.924 	"/>
	<polygon points="169.186,76.09 170.677,75.162 199.99,89.882 198.499,90.811 	"/>
	<polygon points="173.292,73.536 175.531,72.144 204.846,86.863 202.605,88.257 	"/>
</g>
</svg>
