<?xml version="1.0" encoding="utf-8"?>
<!-- Generator: Adobe Illustrator 16.0.0, SVG Export Plug-In . SVG Version: 6.00 Build 0)  -->
<!DOCTYPE svg PUBLIC "-//W3C//DTD SVG 1.1//EN" "http://www.w3.org/Graphics/SVG/1.1/DTD/svg11.dtd">
<svg version="1.1" id="Calque_1" xmlns="http://www.w3.org/2000/svg" xmlns:xlink="http://www.w3.org/1999/xlink" x="0px" y="0px"
	 width="300px" height="300px" viewBox="0 0 300 300" enable-background="new 0 0 300 300" xml:space="preserve">
<g>
	<g>
		<path fill="#010101" d="M53.903,150.932v98.525h47.75v-62.098h34.597v62.098h109.847v-98.525
			c7.118-5.983,11.649-14.948,11.649-24.952V96.692l-28.59-46.149H71.701L42.253,96.635v29.345
			C42.253,135.984,46.786,144.949,53.903,150.932z M105.218,65.624L92.356,99.029v19.629v7.321c0,2.786-0.657,5.419-1.819,7.759
			c-2.866,5.773-8.822,9.752-15.692,9.752c-2.055,0-4.027-0.359-5.861-1.012c-6.781-2.417-11.65-8.898-11.65-16.499v-7.321v-17.617
			l22.628-35.417L105.218,65.624L105.218,65.624z M142.459,65.624v53.035v7.321c0,2.786-0.657,5.419-1.819,7.76
			c-2.866,5.772-8.822,9.751-15.692,9.751s-12.826-3.979-15.692-9.751c-1.162-2.34-1.819-4.974-1.819-7.76v-7.321v-16.826
			l13.941-36.208L142.459,65.624L142.459,65.624z M178.622,65.624l13.94,36.209v16.826v7.321c0,2.786-0.656,5.419-1.818,7.76
			c-2.867,5.772-8.822,9.751-15.692,9.751s-12.826-3.979-15.692-9.751c-1.162-2.34-1.818-4.974-1.818-7.76v-7.321V65.624H178.622z
			 M220.759,65.624l21.907,35.361v17.674v7.321c0,7.601-4.869,14.083-11.65,16.499c-1.834,0.653-3.805,1.012-5.861,1.012
			c-6.869,0-12.826-3.979-15.691-9.751c-1.162-2.34-1.819-4.974-1.819-7.76v-7.321V99.03l-12.862-33.406L220.759,65.624
			L220.759,65.624z M231.016,234.377H151.33v-62.098H86.572v62.098H68.984v-76.334c1.902,0.347,3.861,0.529,5.861,0.529
			c10.06,0,19.068-4.58,25.052-11.766c5.983,7.186,14.992,11.766,25.051,11.766c10.06,0,19.068-4.58,25.052-11.766
			c5.983,7.186,14.992,11.766,25.052,11.766s19.068-4.58,25.052-11.766c5.982,7.186,14.992,11.766,25.051,11.766
			c2.001,0,3.96-0.183,5.861-0.529V234.377L231.016,234.377z"/>
	</g>
</g>
<g>
	<polyline fill="#F31757" points="203.473,213.388 181.438,194.226 219.873,171.243 	"/>
	<polyline fill="#F31757" points="159.127,174.71 174.627,188.357 219.86,171.205 	"/>
	<polyline fill="none" stroke="#F31757" stroke-width="1.2184" stroke-miterlimit="10" points="174.856,187.793 177.258,202.251 
		181.912,194.562 	"/>
	<path fill="none" stroke="#000000" stroke-width="1.2184" stroke-miterlimit="10" d="M203.054,213.94"/>
</g>
<circle fill="#FFFFFF" stroke="#000000" stroke-width="7" stroke-miterlimit="10" cx="228.667" cy="231.334" r="40.334"/>
<path d="M217.934,242.594c0.42,3.602,2.092,6.092,5.016,7.473c1.496,0.701,3.227,1.051,5.191,1.051c3.74,0,6.512-1.191,8.314-3.578
	c1.801-2.385,2.699-5.027,2.699-7.928c0-3.508-1.068-6.219-3.209-8.137c-2.139-1.918-4.705-2.877-7.699-2.877
	c-2.176,0-4.041,0.422-5.596,1.262c-1.555,0.844-2.881,2.014-3.98,3.51l-5.473-0.316l3.826-27.045h26.096v6.104h-21.361
	l-2.143,13.961c1.17-0.889,2.281-1.555,3.334-2c1.869-0.771,4.033-1.158,6.49-1.158c4.605,0,8.512,1.486,11.715,4.455
	c3.203,2.971,4.807,6.736,4.807,11.295c0,4.748-1.469,8.936-4.402,12.559c-2.936,3.627-7.619,5.438-14.049,5.438
	c-4.094,0-7.713-1.152-10.857-3.455s-4.904-5.84-5.279-10.611H217.934z"/>
</svg>
