<?xml version="1.0" encoding="utf-8"?>
<!-- Generator: Adobe Illustrator 16.0.0, SVG Export Plug-In . SVG Version: 6.00 Build 0)  -->
<!DOCTYPE svg PUBLIC "-//W3C//DTD SVG 1.1//EN" "http://www.w3.org/Graphics/SVG/1.1/DTD/svg11.dtd">
<svg version="1.1" id="Calque_1" xmlns="http://www.w3.org/2000/svg" xmlns:xlink="http://www.w3.org/1999/xlink" x="0px" y="0px"
	 width="300px" height="300px" viewBox="0 0 300 300" enable-background="new 0 0 300 300" xml:space="preserve">
<path fill="none" stroke="#010101" stroke-width="7" stroke-miterlimit="10" d="M271.333,201.841c0,3.652-2.687,6.615-6,6.615
	H34.667c-3.313,0-6-2.963-6-6.615v-15.438c0-3.652,2.687-6.615,6-6.615h230.666c3.313,0,6,2.963,6,6.615V201.841z"/>
<path fill="none" stroke="#010101" stroke-width="12" stroke-miterlimit="10" d="M96.667,236.157c0,1.135-0.698,2.055-1.558,2.055
	H35.224c-0.859,0-1.557-0.92-1.557-2.055v-4.793c0-1.135,0.697-2.055,1.557-2.055h59.886c0.859,0,1.558,0.92,1.558,2.055V236.157z"
	/>
<path fill="none" stroke="#010101" stroke-width="7" stroke-miterlimit="10" d="M271.333,158.507c0,3.653-2.687,6.614-6,6.614
	H34.667c-3.313,0-6-2.961-6-6.614V143.07c0-3.653,2.687-6.615,6-6.615h230.666c3.313,0,6,2.962,6,6.615V158.507z"/>
<path fill="none" stroke="#010101" stroke-width="7" stroke-miterlimit="10" d="M271.333,115.173c0,3.653-2.687,6.615-6,6.615
	H34.667c-3.313,0-6-2.962-6-6.615V99.737c0-3.653,2.687-6.615,6-6.615h230.666c3.313,0,6,2.962,6,6.615V115.173z"/>
<path fill="none" stroke="#010101" stroke-width="7" stroke-miterlimit="10" d="M271.333,71.84c0,3.653-2.687,6.615-6,6.615H34.667
	c-3.313,0-6-2.962-6-6.615V56.403c0-3.653,2.687-6.615,6-6.615h230.666c3.313,0,6,2.962,6,6.615V71.84z"/>
<g>
	<circle fill="#FFFFFF" stroke="#000000" stroke-width="7" stroke-miterlimit="10" cx="228.667" cy="231.334" r="40.334"/>
	<path d="M213.986,243.242c1.555-3.203,4.59-6.115,9.104-8.734l6.734-3.894c3.018-1.754,5.133-3.252,6.35-4.494
		c1.916-1.945,2.875-4.17,2.875-6.678c0-2.929-0.877-5.254-2.629-6.976c-1.754-1.723-4.094-2.584-7.016-2.584
		c-4.328,0-7.32,1.643-8.98,4.926c-0.891,1.759-1.381,4.198-1.475,7.316h-6.418c0.07-4.372,0.877-7.938,2.42-10.699
		c2.736-4.863,7.564-7.296,14.488-7.296c5.752,0,9.955,1.556,12.609,4.666s3.982,6.571,3.982,10.383
		c0,4.023-1.416,7.46-4.246,10.313c-1.637,1.661-4.572,3.672-8.803,6.033l-4.807,2.666c-2.293,1.263-4.094,2.468-5.402,3.612
		c-2.338,2.035-3.811,4.292-4.42,6.771h27.432v5.964h-34.482C211.535,250.212,212.432,246.447,213.986,243.242z"/>
</g>
</svg>
